<?xml version="1.0" encoding="UTF-8"?>
<svg width="352px" height="115px" viewBox="0 0 352 115" version="1.1" xmlns="http://www.w3.org/2000/svg" xmlns:xlink="http://www.w3.org/1999/xlink"  preserveAspectRatio="none">
    <g id="Page-1" stroke="none" stroke-width="1" fill="none" fill-rule="evenodd" opacity="0.25">
        <g id="hero" fill-rule="nonzero">
            <path d="M142.58,114.78 L351.88,114.78 C286.01,114.78 242.1,57.39 176.23,57.39 C152.82,57.39 132.23,64.64 112.35,73.99 C119.76,96.19 128.3,114.78 142.58,114.78 Z" id="Path" fill="#2196F3"></path>
            <path d="M71.58,0 C36.08,0 36.08,114.77 0.58,114.78 C43,114.78 76.37,90.93 112.35,74 C101.33,41 92.8,0 71.58,0 Z" id="Path" fill="#EE4338"></path>
            <path d="M112.35,74 C76.37,90.93 43,114.78 0.58,114.78 L142.58,114.78 C128.3,114.78 119.76,96.19 112.35,74 Z" id="Path" fill="#198EEB"></path>
        </g>
    </g>
</svg>